<mxfile host="app.diagrams.net" modified="2020-09-17T22:27:30.109Z" agent="5.0 (Windows NT 10.0; Win64; x64) AppleWebKit/537.36 (KHTML, like Gecko) Chrome/85.0.4183.102 Safari/537.36" etag="TAiqugdXR6OzMZEazPY7" version="13.7.3" type="github">
  <diagram id="aeTXDCWxOEiZl8AL7aiX" name="Page-1">
    <mxGraphModel dx="654" dy="492" grid="1" gridSize="10" guides="1" tooltips="1" connect="1" arrows="1" fold="1" page="1" pageScale="1" pageWidth="850" pageHeight="1100" math="0" shadow="0">
      <root>
        <mxCell id="0" />
        <mxCell id="1" parent="0" />
        <mxCell id="rMpcds6epmEJafjMs0of-1" value="2" style="ellipse;whiteSpace=wrap;html=1;" vertex="1" parent="1">
          <mxGeometry x="320" y="400" width="50" height="40" as="geometry" />
        </mxCell>
        <mxCell id="rMpcds6epmEJafjMs0of-3" value="3" style="ellipse;whiteSpace=wrap;html=1;" vertex="1" parent="1">
          <mxGeometry x="440" y="280" width="50" height="40" as="geometry" />
        </mxCell>
        <mxCell id="rMpcds6epmEJafjMs0of-4" value="5" style="ellipse;whiteSpace=wrap;html=1;" vertex="1" parent="1">
          <mxGeometry x="440" y="520" width="50" height="40" as="geometry" />
        </mxCell>
        <mxCell id="rMpcds6epmEJafjMs0of-5" value="4" style="ellipse;whiteSpace=wrap;html=1;" vertex="1" parent="1">
          <mxGeometry x="440" y="400" width="50" height="40" as="geometry" />
        </mxCell>
        <mxCell id="rMpcds6epmEJafjMs0of-6" value="6" style="ellipse;whiteSpace=wrap;html=1;" vertex="1" parent="1">
          <mxGeometry x="640" y="280" width="50" height="40" as="geometry" />
        </mxCell>
        <mxCell id="rMpcds6epmEJafjMs0of-7" value="1" style="ellipse;whiteSpace=wrap;html=1;" vertex="1" parent="1">
          <mxGeometry x="120" y="400" width="50" height="40" as="geometry" />
        </mxCell>
        <mxCell id="rMpcds6epmEJafjMs0of-8" value="&lt;font style=&quot;font-size: 18px&quot;&gt;l&lt;/font&gt;" style="text;html=1;align=center;verticalAlign=middle;resizable=0;points=[];autosize=1;" vertex="1" parent="1">
          <mxGeometry x="550" y="260" width="20" height="20" as="geometry" />
        </mxCell>
        <mxCell id="rMpcds6epmEJafjMs0of-9" value="&lt;span style=&quot;font-size: 18px&quot;&gt;d&lt;/span&gt;" style="text;html=1;align=center;verticalAlign=middle;resizable=0;points=[];autosize=1;" vertex="1" parent="1">
          <mxGeometry x="545" y="390" width="30" height="20" as="geometry" />
        </mxCell>
        <mxCell id="rMpcds6epmEJafjMs0of-10" value="&lt;span style=&quot;font-size: 18px&quot;&gt;_&lt;/span&gt;" style="text;html=1;align=center;verticalAlign=middle;resizable=0;points=[];autosize=1;" vertex="1" parent="1">
          <mxGeometry x="545" y="510" width="30" height="20" as="geometry" />
        </mxCell>
        <mxCell id="rMpcds6epmEJafjMs0of-11" value="7" style="ellipse;whiteSpace=wrap;html=1;" vertex="1" parent="1">
          <mxGeometry x="640" y="400" width="50" height="40" as="geometry" />
        </mxCell>
        <mxCell id="rMpcds6epmEJafjMs0of-12" value="8" style="ellipse;whiteSpace=wrap;html=1;" vertex="1" parent="1">
          <mxGeometry x="640" y="520" width="50" height="40" as="geometry" />
        </mxCell>
        <mxCell id="rMpcds6epmEJafjMs0of-13" value="" style="endArrow=none;html=1;exitX=1;exitY=0.5;exitDx=0;exitDy=0;entryX=0;entryY=0.5;entryDx=0;entryDy=0;" edge="1" parent="1" source="rMpcds6epmEJafjMs0of-7" target="rMpcds6epmEJafjMs0of-1">
          <mxGeometry width="50" height="50" relative="1" as="geometry">
            <mxPoint x="380" y="440" as="sourcePoint" />
            <mxPoint x="430" y="390" as="targetPoint" />
          </mxGeometry>
        </mxCell>
        <mxCell id="rMpcds6epmEJafjMs0of-15" value="" style="endArrow=none;html=1;exitX=1;exitY=0.5;exitDx=0;exitDy=0;entryX=0;entryY=0.5;entryDx=0;entryDy=0;" edge="1" parent="1" source="rMpcds6epmEJafjMs0of-1" target="rMpcds6epmEJafjMs0of-5">
          <mxGeometry width="50" height="50" relative="1" as="geometry">
            <mxPoint x="340" y="480" as="sourcePoint" />
            <mxPoint x="490" y="480" as="targetPoint" />
          </mxGeometry>
        </mxCell>
        <mxCell id="rMpcds6epmEJafjMs0of-16" value="" style="endArrow=none;html=1;exitX=1;exitY=1;exitDx=0;exitDy=0;entryX=0;entryY=0;entryDx=0;entryDy=0;" edge="1" parent="1" source="rMpcds6epmEJafjMs0of-1" target="rMpcds6epmEJafjMs0of-4">
          <mxGeometry width="50" height="50" relative="1" as="geometry">
            <mxPoint x="420" y="480" as="sourcePoint" />
            <mxPoint x="570" y="480" as="targetPoint" />
          </mxGeometry>
        </mxCell>
        <mxCell id="rMpcds6epmEJafjMs0of-17" value="" style="endArrow=none;html=1;exitX=1;exitY=0;exitDx=0;exitDy=0;entryX=0;entryY=1;entryDx=0;entryDy=0;" edge="1" parent="1" source="rMpcds6epmEJafjMs0of-1" target="rMpcds6epmEJafjMs0of-3">
          <mxGeometry width="50" height="50" relative="1" as="geometry">
            <mxPoint x="420" y="360" as="sourcePoint" />
            <mxPoint x="570" y="360" as="targetPoint" />
          </mxGeometry>
        </mxCell>
        <mxCell id="rMpcds6epmEJafjMs0of-18" value="" style="endArrow=none;html=1;exitX=1;exitY=0.5;exitDx=0;exitDy=0;entryX=0;entryY=0.5;entryDx=0;entryDy=0;" edge="1" parent="1" source="rMpcds6epmEJafjMs0of-5" target="rMpcds6epmEJafjMs0of-11">
          <mxGeometry width="50" height="50" relative="1" as="geometry">
            <mxPoint x="530" y="360" as="sourcePoint" />
            <mxPoint x="680" y="360" as="targetPoint" />
          </mxGeometry>
        </mxCell>
        <mxCell id="rMpcds6epmEJafjMs0of-19" value="" style="endArrow=none;html=1;exitX=1;exitY=0.5;exitDx=0;exitDy=0;entryX=0;entryY=0.5;entryDx=0;entryDy=0;" edge="1" parent="1" source="rMpcds6epmEJafjMs0of-4" target="rMpcds6epmEJafjMs0of-12">
          <mxGeometry width="50" height="50" relative="1" as="geometry">
            <mxPoint x="610" y="440" as="sourcePoint" />
            <mxPoint x="760" y="440" as="targetPoint" />
          </mxGeometry>
        </mxCell>
        <mxCell id="rMpcds6epmEJafjMs0of-20" value="" style="endArrow=none;html=1;exitX=1;exitY=0.5;exitDx=0;exitDy=0;entryX=0;entryY=0.5;entryDx=0;entryDy=0;" edge="1" parent="1" source="rMpcds6epmEJafjMs0of-3" target="rMpcds6epmEJafjMs0of-6">
          <mxGeometry width="50" height="50" relative="1" as="geometry">
            <mxPoint x="620" y="430" as="sourcePoint" />
            <mxPoint x="770" y="430" as="targetPoint" />
          </mxGeometry>
        </mxCell>
        <mxCell id="rMpcds6epmEJafjMs0of-21" value="9" style="ellipse;whiteSpace=wrap;html=1;" vertex="1" parent="1">
          <mxGeometry x="790" y="400" width="50" height="40" as="geometry" />
        </mxCell>
        <mxCell id="rMpcds6epmEJafjMs0of-22" value="" style="endArrow=none;html=1;exitX=1;exitY=1;exitDx=0;exitDy=0;entryX=0;entryY=0;entryDx=0;entryDy=0;" edge="1" parent="1" source="rMpcds6epmEJafjMs0of-6" target="rMpcds6epmEJafjMs0of-21">
          <mxGeometry width="50" height="50" relative="1" as="geometry">
            <mxPoint x="710" y="370" as="sourcePoint" />
            <mxPoint x="860" y="370" as="targetPoint" />
          </mxGeometry>
        </mxCell>
        <mxCell id="rMpcds6epmEJafjMs0of-23" value="" style="endArrow=none;html=1;exitX=1;exitY=0.5;exitDx=0;exitDy=0;entryX=0;entryY=0.5;entryDx=0;entryDy=0;" edge="1" parent="1" source="rMpcds6epmEJafjMs0of-11" target="rMpcds6epmEJafjMs0of-21">
          <mxGeometry width="50" height="50" relative="1" as="geometry">
            <mxPoint x="730" y="430" as="sourcePoint" />
            <mxPoint x="880" y="430" as="targetPoint" />
          </mxGeometry>
        </mxCell>
        <mxCell id="rMpcds6epmEJafjMs0of-24" value="" style="endArrow=none;html=1;exitX=1;exitY=0;exitDx=0;exitDy=0;entryX=0;entryY=1;entryDx=0;entryDy=0;" edge="1" parent="1" source="rMpcds6epmEJafjMs0of-12" target="rMpcds6epmEJafjMs0of-21">
          <mxGeometry width="50" height="50" relative="1" as="geometry">
            <mxPoint x="750" y="460" as="sourcePoint" />
            <mxPoint x="900" y="460" as="targetPoint" />
          </mxGeometry>
        </mxCell>
      </root>
    </mxGraphModel>
  </diagram>
</mxfile>
